# xmcd
#
# Track frame offsets: 
#        150
#        17623
#        34946
#        57572
#        75026
#        94071
#        110704
#        127571
#        146524
#        167091
#        179590
#        190809
#        206398
#        221034
#        238841
#        251333
#
# Disc length: 3496 seconds
#
# Revision: 0
# Processed by: cddbd v1.5.2PL0 Copyright (c) Steve Scherf et al.
# Submitted via: ExactAudioCopy v0.95b4
#
DISCID=d60da610
DTITLE=Becca and The Hired Guns - The Ballad of Willa Kale
DYEAR=2002
DGENRE=Country
TTITLE0=Willa Kale
TTITLE1=Grandpa's Country Store
TTITLE2=It's What You Spend
TTITLE3=I Didn't Know Mountains Could Move
TTITLE4=Chrysler State of Mind
TTITLE5=Doubting Thomas in Us
TTITLE6=Chicken Noodle Surprise
TTITLE7=Be Reasonable (and Do it My Way)
TTITLE8=Better Days
TTITLE9=Love Put a Good Man in the Grave
TTITLE10=Lullaby Prayer
TTITLE11=What's in a Name?
TTITLE12=Technicolor Past
TTITLE13=Nothing's Changed
TTITLE14=Walkin' After Midnight
TTITLE15=We'll All Go Home
EXTD=
EXTT0=
EXTT1=
EXTT2=
EXTT3=
EXTT4=
EXTT5=
EXTT6=
EXTT7=
EXTT8=
EXTT9=
EXTT10=
EXTT11=
EXTT12=
EXTT13=
EXTT14=
EXTT15=
PLAYORDER=
